<svg width="160" height="164" viewBox="0 0 160 164" fill="none" xmlns="http://www.w3.org/2000/svg" xmlns:xlink="http://www.w3.org/1999/xlink">
<path d="M94,39C94,60.539 72.957,78 47,78C21.043,78 0,60.539 0,39C0,17.461 21.043,0 47,0C72.957,0 94,17.461 94,39Z" fill="#FFFFFF"/>
<path d="M94,39C94,60.539 72.957,78 47,78C21.043,78 0,60.539 0,39C0,17.461 21.043,0 47,0C72.957,0 94,17.461 94,39Z" fill="#FFFFFF"/>
<path d="M94,39C94,60.539 72.957,78 47,78C21.043,78 0,60.539 0,39C0,17.461 21.043,0 47,0C72.957,0 94,17.461 94,39Z" fill="#FFFFFF"/>
<path d="M160,117C160,142.957 138.062,164 111,164C83.938,164 62,142.957 62,117C62,91.043 83.938,70 111,70C138.062,70 160,91.043 160,117Z" fill="#FFFFFF"/>
</svg>
