<svg width="142" height="150" viewBox="0 0 142 150" fill="none" xmlns="http://www.w3.org/2000/svg" xmlns:xlink="http://www.w3.org/1999/xlink">
<path d="M31.76,88.588L57.575,126.909C59.386,129.598 60.254,132.736 60.179,136.321C60.104,139.907 59.235,143.044 57.575,145.733C55.763,148.423 53.612,149.823 51.121,149.935C48.63,150.047 46.479,148.759 44.667,146.07L3.228,84.554C1.416,81.865 0.511,78.727 0.511,75.142C0.511,71.556 1.416,68.419 3.228,65.729L44.667,4.214C46.479,1.524 48.63,0.236 51.121,0.348C53.612,0.46 55.763,1.861 57.575,4.55C59.235,7.239 60.104,10.376 60.179,13.962C60.254,17.548 59.386,20.685 57.575,23.374L31.76,61.696L132.755,61.696C135.321,61.696 137.472,62.984 139.208,65.561C140.945,68.139 141.813,71.332 141.813,75.142C141.813,78.951 140.945,82.145 139.208,84.722C137.472,87.299 135.321,88.588 132.755,88.588L31.76,88.588Z" transform="rotate(-356.527 71.162 75.142)" fill="#FDF9F9"/>
</svg>
