<svg width="146" height="104" viewBox="0 0 146 104" fill="none" xmlns="http://www.w3.org/2000/svg" xmlns:xlink="http://www.w3.org/1999/xlink">
<path d="M31.267,61.333L57.867,87.933C59.733,89.8 60.628,91.978 60.55,94.467C60.472,96.955 59.578,99.133 57.867,101C56,102.867 53.783,103.839 51.217,103.917C48.65,103.994 46.433,103.1 44.567,101.233L1.867,58.533C0,56.667 -0.933,54.489 -0.933,52C-0.933,49.511 0,47.333 1.867,45.467L44.567,2.767C46.433,0.9 48.65,0.006 51.217,0.083C53.783,0.161 56,1.133 57.867,3C59.578,4.867 60.472,7.044 60.55,9.533C60.628,12.022 59.733,14.2 57.867,16.067L31.267,42.667L135.333,42.667C137.978,42.667 140.195,43.561 141.983,45.35C143.772,47.139 144.667,49.355 144.667,52C144.667,54.644 143.772,56.861 141.983,58.65C140.195,60.439 137.978,61.333 135.333,61.333L31.267,61.333Z" fill="#FDF9F9"/>
</svg>
